<svg width="20" height="18" viewBox="0 0 20 18" fill="none" xmlns="http://www.w3.org/2000/svg">
<path d="M7.76094 11.3668C7.18594 10.7928 6.83594 10.0128 6.83594 9.1378C6.83594 7.3848 8.24794 5.9718 9.99994 5.9718C10.8669 5.9718 11.6649 6.3228 12.2299 6.8968" stroke="#C9CCD8" stroke-width="1.5" stroke-linecap="round" stroke-linejoin="round"/>
<path d="M13.1034 9.69897C12.8714 10.989 11.8554 12.007 10.5664 12.241" stroke="#C9CCD8" stroke-width="1.5" stroke-linecap="round" stroke-linejoin="round"/>
<path d="M4.655 14.4724C3.068 13.2264 1.724 11.4064 0.75 9.13735C1.734 6.85835 3.087 5.02835 4.684 3.77235C6.271 2.51635 8.102 1.83435 10 1.83435C11.909 1.83435 13.739 2.52635 15.336 3.79135" stroke="#C9CCD8" stroke-width="1.5" stroke-linecap="round" stroke-linejoin="round"/>
<path d="M17.4487 5.99084C18.1367 6.90484 18.7417 7.95984 19.2507 9.13684C17.2837 13.6938 13.8077 16.4388 10.0008 16.4388C9.13775 16.4388 8.28675 16.2988 7.46875 16.0258" stroke="#C9CCD8" stroke-width="1.5" stroke-linecap="round" stroke-linejoin="round"/>
<path d="M17.8873 1.24963L2.11328 17.0236" stroke="#C9CCD8" stroke-width="1.5" stroke-linecap="round" stroke-linejoin="round"/>
</svg>
