<svg width="26" height="26" viewBox="0 0 26 26" fill="none" xmlns="http://www.w3.org/2000/svg">
<path d="M9.97687 15.0149C11.6466 15.0149 13.0001 16.3685 13.0001 18.0382C13.0001 18.5947 12.5489 19.0459 11.9924 19.0459H7.96137C7.4048 19.0459 6.95362 18.5947 6.95362 18.0382C6.95362 16.3685 8.30717 15.0149 9.97687 15.0149ZM9.97687 15.0149C11.09 15.0149 11.9924 14.1125 11.9924 12.9994C11.9924 11.8863 11.09 10.9839 9.97687 10.9839C8.86374 10.9839 7.96137 11.8863 7.96137 12.9994C7.96137 14.1125 8.86374 15.0149 9.97687 15.0149ZM19.0466 12.9994L16.0234 12.9994M19.0466 17.0304L16.0234 17.0304M5.94586 23.0769H20.0544C21.7241 23.0769 23.0776 21.7234 23.0776 20.0537V9.97614C23.0776 8.30644 21.7241 6.95288 20.0544 6.95288H5.94586C4.27617 6.95288 2.92261 8.30644 2.92261 9.97614V20.0537C2.92261 21.7234 4.27616 23.0769 5.94586 23.0769ZM15.0156 6.95288V4.93738C15.0156 3.82425 14.1133 2.92188 13.0001 2.92188C11.887 2.92188 10.9846 3.82425 10.9846 4.93738V6.95288H15.0156Z" stroke="white" stroke-width="1.5" stroke-linecap="round"/>
</svg>
