<svg width="26" height="26" viewBox="0 0 26 26" fill="none" xmlns="http://www.w3.org/2000/svg">
<path d="M24.2568 20.9751L18.9661 10.3937C18.9033 10.2682 18.8068 10.1627 18.6874 10.0889C18.568 10.0151 18.4305 9.97602 18.2901 9.97602C18.1498 9.97602 18.0122 10.0151 17.8928 10.0889C17.7734 10.1627 17.6769 10.2682 17.6141 10.3937L15.5631 14.4969C13.9553 14.4065 12.4085 13.8511 11.1104 12.8983C12.6334 11.2719 13.5562 9.17462 13.7264 6.9529H16.0232C16.2236 6.9529 16.4159 6.87327 16.5576 6.73152C16.6993 6.58978 16.779 6.39754 16.779 6.19708C16.779 5.99663 16.6993 5.80439 16.5576 5.66264C16.4159 5.5209 16.2236 5.44127 16.0232 5.44127H10.7325V3.92964C10.7325 3.72919 10.6528 3.53694 10.5111 3.3952C10.3693 3.25346 10.1771 3.17383 9.97664 3.17383C9.77619 3.17383 9.58394 3.25346 9.4422 3.3952C9.30046 3.53694 9.22083 3.72919 9.22083 3.92964V5.44127H3.93013C3.72968 5.44127 3.53743 5.5209 3.39569 5.66264C3.25395 5.80439 3.17432 5.99663 3.17432 6.19708C3.17432 6.39754 3.25395 6.58978 3.39569 6.73152C3.53743 6.87327 3.72968 6.9529 3.93013 6.9529H12.2091C12.0408 8.80526 11.2545 10.5472 9.97664 11.8988C9.18035 11.0585 8.56887 10.0609 8.18158 8.96998C8.14974 8.8748 8.09926 8.78691 8.03308 8.71145C7.96691 8.636 7.88636 8.57447 7.79616 8.53047C7.70595 8.48648 7.60788 8.46089 7.50768 8.45519C7.40748 8.4495 7.30714 8.46383 7.21253 8.49733C7.11793 8.53083 7.03094 8.58284 6.95664 8.65032C6.88235 8.7178 6.82224 8.79941 6.77983 8.89037C6.73741 8.98133 6.71353 9.07983 6.70959 9.18012C6.70565 9.2804 6.72173 9.38047 6.75687 9.47448C7.20778 10.7498 7.91806 11.9178 8.84292 12.9049C7.41893 13.9513 5.69725 14.5142 3.93013 14.511C3.72968 14.511 3.53743 14.5907 3.39569 14.7324C3.25395 14.8742 3.17432 15.0664 3.17432 15.2668C3.17432 15.4673 3.25395 15.6595 3.39569 15.8013C3.53743 15.943 3.72968 16.0227 3.93013 16.0227C6.12255 16.0251 8.25212 15.2904 9.97664 13.9366C11.3839 15.0362 13.0639 15.7322 14.8365 15.9499L12.3234 20.9751C12.279 21.0639 12.2525 21.1606 12.2455 21.2596C12.2384 21.3586 12.2509 21.458 12.2823 21.5522C12.3456 21.7424 12.4819 21.8996 12.6612 21.9893C12.8405 22.079 13.0481 22.0939 13.2383 22.0305C13.4285 21.9672 13.5857 21.8309 13.6754 21.6516L14.9782 19.0459H21.602L22.9048 21.6516C22.9677 21.7772 23.0642 21.8827 23.1837 21.9565C23.3032 22.0303 23.4409 22.0693 23.5813 22.0692C23.7101 22.0691 23.8368 22.0361 23.9493 21.9733C24.0617 21.9105 24.1563 21.82 24.224 21.7104C24.2917 21.6008 24.3302 21.4757 24.336 21.347C24.3417 21.2184 24.3144 21.0903 24.2568 20.9751ZM15.7341 17.5343L18.2906 12.4222L20.8462 17.5343H15.7341Z" fill="white"/>
</svg>
