<svg width="36" height="36" viewBox="0 0 36 36" fill="none" xmlns="http://www.w3.org/2000/svg">
<path d="M12.6539 18C12.6539 17.783 12.739 17.5749 12.8905 17.4215C13.042 17.268 13.2474 17.1818 13.4617 17.1818H20.731V11.8636C20.731 10.2273 19.0252 9 17.5002 9H9.82697C9.07746 9.00081 8.35887 9.30278 7.82889 9.83964C7.2989 10.3765 7.0008 11.1044 7 11.8636V24.1364C7.0008 24.8956 7.2989 25.6235 7.82889 26.1604C8.35887 26.6972 9.07746 26.9992 9.82697 27H17.904C18.6536 26.9992 19.3721 26.6972 19.9021 26.1604C20.4321 25.6235 20.7302 24.8956 20.731 24.1364V18.8182H13.4617C13.2474 18.8182 13.042 18.732 12.8905 18.5785C12.739 18.4251 12.6539 18.217 12.6539 18ZM27.7636 17.4216L23.7251 13.3307C23.5724 13.1838 23.369 13.1031 23.1584 13.1058C22.9478 13.1085 22.7466 13.1945 22.5976 13.3454C22.4487 13.4962 22.3638 13.7001 22.3611 13.9134C22.3584 14.1268 22.4381 14.3328 22.5832 14.4874L25.2426 17.1818H20.731V18.8182H25.2426L22.5832 21.5126C22.505 21.5878 22.4425 21.6781 22.3994 21.7782C22.3562 21.8782 22.3333 21.986 22.3319 22.0952C22.3305 22.2044 22.3507 22.3128 22.3913 22.414C22.4319 22.5151 22.4921 22.607 22.5684 22.6843C22.6446 22.7615 22.7353 22.8225 22.8352 22.8636C22.9351 22.9048 23.0421 22.9252 23.1499 22.9238C23.2577 22.9224 23.3641 22.8992 23.4629 22.8555C23.5617 22.8117 23.6508 22.7484 23.7251 22.6693L27.7636 18.5784C27.915 18.4249 28 18.2169 28 18C28 17.7831 27.915 17.5751 27.7636 17.4216Z" fill="white" fill-opacity="0.25"/>
</svg>
