<svg width="8" height="12" viewBox="0 0 18 18" fill="none" xmlns="http://www.w3.org/2000/svg">
<path d="M18 0.75V4.5C18 4.69891 17.921 4.88968 17.7803 5.03033C17.6397 5.17098 17.4489 5.25 17.25 5.25C17.0511 5.25 16.8603 5.17098 16.7197 5.03033C16.579 4.88968 16.5 4.69891 16.5 4.5V1.5H13.5C13.3011 1.5 13.1103 1.42098 12.9697 1.28033C12.829 1.13968 12.75 0.948912 12.75 0.75C12.75 0.551088 12.829 0.360322 12.9697 0.21967C13.1103 0.0790178 13.3011 0 13.5 0H17.25C17.4489 0 17.6397 0.0790178 17.7803 0.21967C17.921 0.360322 18 0.551088 18 0.75ZM4.5 16.5H1.5V13.5C1.5 13.3011 1.42098 13.1103 1.28033 12.9697C1.13968 12.829 0.948912 12.75 0.75 12.75C0.551088 12.75 0.360322 12.829 0.21967 12.9697C0.0790178 13.1103 0 13.3011 0 13.5V17.25C0 17.4489 0.0790178 17.6397 0.21967 17.7803C0.360322 17.921 0.551088 18 0.75 18H4.5C4.69891 18 4.88968 17.921 5.03033 17.7803C5.17098 17.6397 5.25 17.4489 5.25 17.25C5.25 17.0511 5.17098 16.8603 5.03033 16.7197C4.88968 16.579 4.69891 16.5 4.5 16.5ZM17.25 12.75C17.0511 12.75 16.8603 12.829 16.7197 12.9697C16.579 13.1103 16.5 13.3011 16.5 13.5V16.5H13.5C13.3011 16.5 13.1103 16.579 12.9697 16.7197C12.829 16.8603 12.75 17.0511 12.75 17.25C12.75 17.4489 12.829 17.6397 12.9697 17.7803C13.1103 17.921 13.3011 18 13.5 18H17.25C17.4489 18 17.6397 17.921 17.7803 17.7803C17.921 17.6397 18 17.4489 18 17.25V13.5C18 13.3011 17.921 13.1103 17.7803 12.9697C17.6397 12.829 17.4489 12.75 17.25 12.75ZM0.75 5.25C0.948912 5.25 1.13968 5.17098 1.28033 5.03033C1.42098 4.88968 1.5 4.69891 1.5 4.5V1.5H4.5C4.69891 1.5 4.88968 1.42098 5.03033 1.28033C5.17098 1.13968 5.25 0.948912 5.25 0.75C5.25 0.551088 5.17098 0.360322 5.03033 0.21967C4.88968 0.0790178 4.69891 0 4.5 0H0.75C0.551088 0 0.360322 0.0790178 0.21967 0.21967C0.0790178 0.360322 0 0.551088 0 0.75V4.5C0 4.69891 0.0790178 4.88968 0.21967 5.03033C0.360322 5.17098 0.551088 5.25 0.75 5.25ZM3.75 4.5V13.5C3.75 13.6989 3.82902 13.8897 3.96967 14.0303C4.11032 14.171 4.30109 14.25 4.5 14.25H13.5C13.6989 14.25 13.8897 14.171 14.0303 14.0303C14.171 13.8897 14.25 13.6989 14.25 13.5V4.5C14.25 4.30109 14.171 4.11032 14.0303 3.96967C13.8897 3.82902 13.6989 3.75 13.5 3.75H4.5C4.30109 3.75 4.11032 3.82902 3.96967 3.96967C3.82902 4.11032 3.75 4.30109 3.75 4.5Z" fill="gray"/>
</svg>
