<svg width="8" height="12" viewBox="0 0 14 18" fill="none" xmlns="http://www.w3.org/2000/svg">
<path d="M7 0C8.16032 0 9.27312 0.474106 10.0936 1.31802C10.9141 2.16193 11.375 3.30653 11.375 4.5V7.2C12.0712 7.2 12.7389 7.48446 13.2312 7.99081C13.7234 8.49716 14 9.18392 14 9.9V15.3C14 16.0161 13.7234 16.7028 13.2312 17.2092C12.7389 17.7155 12.0712 18 11.375 18H2.625C1.92881 18 1.26113 17.7155 0.768845 17.2092C0.276562 16.7028 0 16.0161 0 15.3V9.9C0 9.18392 0.276562 8.49716 0.768845 7.99081C1.26113 7.48446 1.92881 7.2 2.625 7.2V4.5C2.625 3.30653 3.08594 2.16193 3.90641 1.31802C4.72688 0.474106 5.83968 0 7 0ZM7 10.8C6.5585 10.7999 6.13325 10.9714 5.80952 11.2801C5.48579 11.5889 5.28749 12.0122 5.25437 12.465L5.25 12.6C5.25 12.956 5.35264 13.304 5.54493 13.6C5.73722 13.896 6.01053 14.1267 6.3303 14.263C6.65007 14.3992 7.00194 14.4349 7.34141 14.3654C7.68087 14.296 7.99269 14.1245 8.23744 13.8728C8.48218 13.6211 8.64885 13.3003 8.71637 12.9512C8.7839 12.602 8.74924 12.2401 8.61679 11.9112C8.48434 11.5823 8.26003 11.3011 7.97225 11.1034C7.68446 10.9056 7.34612 10.8 7 10.8ZM7 1.8C6.30381 1.8 5.63613 2.08446 5.14384 2.59081C4.65156 3.09716 4.375 3.78392 4.375 4.5V7.2H9.625V4.5C9.625 3.78392 9.34844 3.09716 8.85616 2.59081C8.36387 2.08446 7.69619 1.8 7 1.8Z" fill="gray"/>
</svg>
