<svg width="36" height="36" viewBox="0 0 36 36" fill="none" xmlns="http://www.w3.org/2000/svg">
<path d="M16.4572 27C16.2239 27 16.0217 26.9237 15.8506 26.771C15.6788 26.6183 15.5722 26.428 15.5307 26.2L15.267 24.108C14.9469 24.0113 14.6006 23.86 14.2283 23.654C13.8566 23.4473 13.5401 23.226 13.2787 22.99L11.3586 23.814C11.1467 23.9073 10.9315 23.9173 10.7129 23.844C10.4943 23.7707 10.3259 23.6323 10.2075 23.429L9.12565 21.57C9.00734 21.3667 8.97258 21.154 9.02137 20.932C9.07017 20.71 9.18648 20.528 9.3703 20.386L11.0468 19.136C11.0167 18.9547 10.9923 18.7683 10.9736 18.577C10.9535 18.385 10.9435 18.1987 10.9435 18.018C10.9435 17.85 10.9535 17.6733 10.9736 17.488C10.9923 17.3027 11.0167 17.094 11.0468 16.862L9.3703 15.612C9.18648 15.47 9.07351 15.285 9.0314 15.057C8.98929 14.829 9.02705 14.613 9.1447 14.409L10.2075 12.609C10.3259 12.4177 10.4943 12.2823 10.7129 12.203C10.9315 12.1237 11.1467 12.1307 11.3586 12.224L13.2597 13.028C13.5591 12.7793 13.8833 12.555 14.2323 12.355C14.5799 12.155 14.9184 12.0003 15.248 11.891L15.5317 9.799C15.5725 9.571 15.6788 9.38067 15.8506 9.228C16.0224 9.07534 16.2246 8.99934 16.4572 9H18.5428C18.7761 9 18.9783 9.07634 19.1494 9.229C19.3212 9.38167 19.4278 9.572 19.4693 9.8L19.733 11.912C20.1173 12.0467 20.4569 12.201 20.7517 12.375C21.0465 12.549 21.3503 12.767 21.6631 13.029L23.6604 12.225C23.873 12.1317 24.0886 12.1247 24.3072 12.204C24.5257 12.2833 24.6939 12.4187 24.8115 12.61L25.8743 14.429C25.9927 14.633 26.0274 14.8457 25.9786 15.067C25.9298 15.2883 25.8135 15.4707 25.6297 15.614L23.877 16.92C23.9318 17.1267 23.9626 17.3163 23.9693 17.489C23.9759 17.6617 23.9793 17.8317 23.9793 17.999C23.9793 18.1543 23.9726 18.318 23.9592 18.49C23.9465 18.6627 23.9171 18.8713 23.871 19.116L25.5655 20.386C25.7493 20.528 25.869 20.71 25.9245 20.932C25.98 21.154 25.9485 21.3667 25.8302 21.57L24.7614 23.409C24.6437 23.613 24.4723 23.7513 24.247 23.824C24.0217 23.8973 23.8032 23.8873 23.5913 23.794L21.6631 22.97C21.3509 23.232 21.0368 23.4563 20.7206 23.643C20.4044 23.8297 20.0752 23.978 19.733 24.088L19.4683 26.199C19.4275 26.427 19.3212 26.6173 19.1494 26.77C18.9776 26.9227 18.7754 26.9993 18.5428 27H16.4572ZM17.4729 20.5C18.1721 20.5 18.7647 20.2577 19.2507 19.773C19.7366 19.2883 19.9796 18.6973 19.9796 18C19.9796 17.3027 19.7366 16.7117 19.2507 16.227C18.7647 15.7423 18.1721 15.5 17.4729 15.5C16.7697 15.5 16.1761 15.7423 15.6922 16.227C15.2082 16.7117 14.9662 17.3027 14.9662 18C14.9662 18.6973 15.2082 19.2883 15.6922 19.773C16.1761 20.2577 16.7697 20.5 17.4729 20.5Z" fill="white" fill-opacity="0.25"/>
</svg>
