<svg width="8" height="12" viewBox="0 0 18 18" fill="none" xmlns="http://www.w3.org/2000/svg">
<path d="M17.9999 8.357V14.7857C17.9999 15.6382 17.6352 16.4557 16.9861 17.0585C16.3369 17.6613 15.4565 18 14.5384 18H9.69227C9.50866 18 9.33257 17.9323 9.20274 17.8117C9.07291 17.6911 8.99997 17.5276 8.99997 17.3571C8.99997 17.1866 9.07291 17.0231 9.20274 16.9026C9.33257 16.782 9.50866 16.7143 9.69227 16.7143H14.5384C15.0892 16.7143 15.6175 16.5111 16.007 16.1494C16.3965 15.7877 16.6153 15.2972 16.6153 14.7857H14.5384C13.9876 14.7857 13.4593 14.5825 13.0698 14.2208C12.6803 13.8591 12.4615 13.3686 12.4615 12.8571V9.64273C12.4615 9.13124 12.6803 8.64069 13.0698 8.27901C13.4593 7.91733 13.9876 7.71413 14.5384 7.71413H16.585C16.454 6.37773 15.9162 5.10352 15.0344 4.04035C14.1527 2.97718 12.9633 2.16893 11.6053 1.71003C10.2473 1.25112 8.7767 1.16049 7.3653 1.44873C5.9539 1.73697 4.65995 2.39218 3.6346 3.33782C2.3596 4.50616 1.5732 6.05721 1.41576 7.71413H3.46153C4.01236 7.71413 4.54063 7.91733 4.93013 8.27901C5.31962 8.64069 5.53844 9.13124 5.53844 9.64273V12.8571C5.53844 13.3686 5.31962 13.8591 4.93013 14.2208C4.54063 14.5825 4.01236 14.7857 3.46153 14.7857H2.07692C1.52608 14.7857 0.997812 14.5825 0.608315 14.2208C0.218817 13.8591 0 13.3686 0 12.8571V8.357C0.001941 6.70154 0.532749 5.08382 1.52524 3.70862C2.51773 2.33341 3.92728 1.26254 5.57547 0.631551C7.22367 0.000562668 9.03641 -0.162177 10.7843 0.163932C12.5321 0.490041 14.1365 1.29034 15.3943 2.46352C16.2247 3.23842 16.8823 4.15787 17.3295 5.16918C17.7766 6.18049 18.0044 7.26379 17.9999 8.357Z" fill="gray"/>
</svg>
