<svg width="24" height="18" viewBox="0 0 24 18" xmlns="http://www.w3.org/2000/svg">
  <path fill-rule="evenodd" clip-rule="evenodd" d="M17.9756 9.2793C16.8791 9.2793 15.85 9.48726 14.9844 9.83989C18.0141 10.6627 20.1589 12.6338 20.2166 14.9394C21.794 14.7496 23.4964 14.189 23.4964 12.6609C23.4964 10.8254 20.9668 9.2793 17.9756 9.2793Z" fill="gray"/>
  <path fill-rule="evenodd" clip-rule="evenodd" d="M17.9478 7.97761H17.967C20.0156 7.97761 21.6892 6.4043 21.6892 4.48745C21.6892 2.56155 20.0156 0.988281 17.967 0.988281C17.563 0.988281 17.1783 1.05157 16.8128 1.16007C17.4765 2.08234 17.8612 3.19447 17.8612 4.39703C17.8708 5.61767 17.4669 6.7931 16.707 7.76965C17.1014 7.90527 17.515 7.97761 17.9478 7.97761Z" fill="gray"/>
  <path fill-rule="evenodd" clip-rule="evenodd" d="M8.50238 9.83084C7.63675 9.48726 6.60762 9.2793 5.52077 9.2793C2.52955 9.2793 0 10.8254 0 12.6609C0 14.189 1.69278 14.7405 3.27014 14.9394C3.31823 12.6338 5.46307 10.6627 8.50238 9.83084Z" fill="gray"/>
  <path fill-rule="evenodd" clip-rule="evenodd" d="M5.52117 7.97761H5.55003C5.98284 7.97761 6.39642 7.90527 6.79076 7.76965C6.05978 6.82926 5.62697 5.66288 5.62697 4.39703C5.62697 3.19447 6.01169 2.08234 6.67534 1.16007C6.30985 1.05157 5.92513 0.988281 5.52117 0.988281C3.47252 0.988281 1.80859 2.56155 1.80859 4.48745C1.80859 6.4043 3.47252 7.97761 5.52117 7.97761Z" fill="gray"/>
  <path fill-rule="evenodd" clip-rule="evenodd" d="M11.7437 10.7598C7.93401 10.7598 4.71484 12.7092 4.71484 15.0166C4.71484 18.0004 10.0048 18.0004 11.7437 18.0004C14.7619 18.0004 18.7745 17.693 18.7745 15.0356C18.7745 12.7173 15.5544 10.7598 11.7437 10.7598Z" fill="gray"/>
  <path fill-rule="evenodd" clip-rule="evenodd" d="M11.7437 8.7958H11.7754C13.0209 8.79218 14.1905 8.33195 15.0677 7.50102C15.9458 6.67011 16.4267 5.56792 16.4219 4.39882C16.4219 1.97291 14.3242 0 11.7437 0C9.16411 0 7.06641 1.97291 7.06641 4.39882C7.06641 6.82292 9.16411 8.7958 11.7437 8.7958Z" fill="gray"/>
</svg>
