<svg width="20" height="14" viewBox="0 0 20 14" fill="none" xmlns="http://www.w3.org/2000/svg">
<path d="M19.9843 1.40512V7.11479C19.9843 7.30408 19.9091 7.48561 19.7752 7.61946C19.6414 7.75331 19.4598 7.8285 19.2706 7.8285C19.0813 7.8285 18.8997 7.75331 18.7659 7.61946C18.632 7.48561 18.5568 7.30408 18.5568 7.11479V3.12783L11.211 10.4746C11.1447 10.5409 11.066 10.5936 10.9794 10.6295C10.8927 10.6654 10.7998 10.6839 10.706 10.6839C10.6122 10.6839 10.5194 10.6654 10.4327 10.6295C10.3461 10.5936 10.2674 10.5409 10.2011 10.4746L7.13749 7.41009L1.21906 13.3294C1.08514 13.4633 0.903499 13.5386 0.714107 13.5386C0.524714 13.5386 0.343078 13.4633 0.209157 13.3294C0.075236 13.1955 0 13.0139 0 12.8245C0 12.6351 0.075236 12.4534 0.209157 12.3195L6.63254 5.89613C6.69883 5.82978 6.77754 5.77713 6.86419 5.74122C6.95083 5.7053 7.0437 5.68681 7.13749 5.68681C7.23129 5.68681 7.32416 5.7053 7.4108 5.74122C7.49745 5.77713 7.57616 5.82978 7.64244 5.89613L10.706 8.96062L17.5478 2.11883H13.5609C13.3716 2.11883 13.1901 2.04363 13.0562 1.90978C12.9224 1.77594 12.8472 1.5944 12.8472 1.40512C12.8472 1.21583 12.9224 1.03429 13.0562 0.900447C13.1901 0.766601 13.3716 0.691406 13.5609 0.691406H19.2706C19.4598 0.691406 19.6414 0.766601 19.7752 0.900447C19.9091 1.03429 19.9843 1.21583 19.9843 1.40512Z" fill="#D8611F"/>
</svg>
