<svg width="50" height="50" viewBox="0 0 36 36" fill="none" xmlns="http://www.w3.org/2000/svg">
<path opacity="0.4" d="M21.725 9H25.0261C26.3933 9 27.5011 10.0312 27.5011 11.3039V14.3769C27.5011 15.6495 26.3933 16.6807 25.0261 16.6807H21.725C20.3578 16.6807 19.25 15.6495 19.25 14.3769V11.3039C19.25 10.0312 20.3578 9 21.725 9Z" fill="white" fill-opacity="0.25"/>
<path d="M13.7764 19.3193C15.1433 19.3194 16.2508 20.3506 16.251 21.623V24.6963C16.251 25.968 15.1434 26.9999 13.7764 27H10.4746C9.10763 26.9998 8.00002 25.968 8 24.6963V21.623C8.00013 20.3506 9.1077 19.3195 10.4746 19.3193H13.7764ZM25.0244 19.3184C26.3915 19.3185 27.499 20.3495 27.499 21.6221V24.6943C27.499 25.9661 26.3915 26.9989 25.0244 26.999H21.7227C20.3557 26.9988 19.248 25.966 19.248 24.6943V21.6221C19.248 20.3495 20.3557 19.3186 21.7227 19.3184H25.0244ZM13.7764 9C15.1434 9.00011 16.2509 10.0312 16.251 11.3037V14.377C16.2509 15.6495 15.1434 16.6806 13.7764 16.6807H10.4746C9.10765 16.6805 8.00006 15.6494 8 14.377V11.3037C8.00009 10.0312 9.10767 9.00018 10.4746 9H13.7764Z" fill="gray" />
</svg>
