<svg width="24" height="24" viewBox="0 0 24 24" fill="none" xmlns="http://www.w3.org/2000/svg">
<path d="M21.9666 10.7681L17.7478 14.4084L19.0331 19.8524C19.1041 20.148 19.0858 20.4579 18.9807 20.7431C18.8755 21.0282 18.6882 21.2758 18.4425 21.4546C18.1967 21.6334 17.9034 21.7353 17.5997 21.7475C17.2961 21.7597 16.9956 21.6816 16.7363 21.5231L12.0019 18.6093L7.26471 21.5231C7.00542 21.6807 6.7053 21.758 6.40215 21.7454C6.099 21.7327 5.80636 21.6307 5.56108 21.4521C5.31581 21.2734 5.12887 21.0262 5.02381 20.7416C4.91874 20.457 4.90024 20.1476 4.97064 19.8524L6.26064 14.4084L2.04189 10.7681C1.81249 10.5698 1.64657 10.3083 1.56488 10.0163C1.48318 9.72433 1.48932 9.41473 1.58253 9.1262C1.67574 8.83767 1.85189 8.58299 2.08898 8.39397C2.32607 8.20495 2.6136 8.08997 2.91564 8.06339L8.44689 7.61714L10.5806 2.45339C10.6961 2.17196 10.8927 1.93124 11.1454 1.76183C11.398 1.59241 11.6954 1.50195 11.9996 1.50195C12.3037 1.50195 12.6011 1.59241 12.8537 1.76183C13.1064 1.93124 13.303 2.17196 13.4185 2.45339L15.5513 7.61714L21.0825 8.06339C21.3852 8.08898 21.6735 8.20332 21.9115 8.39208C22.1494 8.58084 22.3264 8.83562 22.4202 9.1245C22.514 9.41338 22.5204 9.72352 22.4387 10.0161C22.357 10.3086 22.1908 10.5705 21.961 10.769L21.9666 10.7681Z" fill="white"/>
</svg>
