<svg width="24" height="25" viewBox="0 0 24 25" fill="none" xmlns="http://www.w3.org/2000/svg">
<path d="M17 8.48047L7 8.48047" stroke="white" stroke-width="1.5" stroke-linecap="round" stroke-linejoin="round"/>
<path d="M17 12.4805L7 12.4805" stroke="white" stroke-width="1.5" stroke-linecap="round" stroke-linejoin="round"/>
<path d="M12 16.4805L7 16.4805" stroke="white" stroke-width="1.5" stroke-linecap="round" stroke-linejoin="round"/>
<path d="M18.1948 3.48047H4.89934C3.85037 3.48047 3 4.33084 3 5.37981V19.7715C3 21.087 4.30496 22.0041 5.54269 21.5586L7.02586 21.0246C7.4893 20.8578 7.99944 20.8775 8.44863 21.0796L10.7676 22.1232C11.2633 22.3462 11.8308 22.3462 12.3265 22.1232L14.6455 21.0796C15.0947 20.8775 15.6048 20.8578 16.0682 21.0246L17.5514 21.5586C18.7891 22.0041 20.0941 21.087 20.0941 19.7715V5.37981C20.0941 4.33083 19.2437 3.48047 18.1948 3.48047Z" stroke="white" stroke-width="1.5" stroke-linecap="round"/>
</svg>
