<svg width="20" height="18" viewBox="0 0 20 18" fill="none" xmlns="http://www.w3.org/2000/svg">
<ellipse cx="4.41697" cy="13.5867" rx="0.916973" ry="0.916808" fill="white" fill-opacity="0.25"/>
<path d="M15.0898 0C17.5324 1.06748e-07 19.5429 1.84424 19.8086 4.21582C19.8269 4.28069 19.8398 4.34823 19.8398 4.41895V13.2529L19.834 13.4971C19.7067 16.0068 17.6312 18.0029 15.0898 18.0029H4.75C2.12707 18.0026 0.000202943 15.8759 0 13.2529V4.41895C9.12619e-10 4.34936 0.0125242 4.28269 0.0302734 4.21875C0.285787 1.92537 2.17377 0.124229 4.50586 0.00585938L4.75 0H15.0898ZM1.5 8.83594V13.2529C1.5002 15.0475 2.9555 16.5026 4.75 16.5029H15.0898C16.8286 16.5029 18.2488 15.1371 18.3359 13.4199L18.3398 13.2529V8.83594H1.5ZM1.5 7.33594H18.3398V5.16895H1.5V7.33594ZM4.58301 1.50391C3.24086 1.57209 2.11683 2.45638 1.68848 3.66895H18.1553C17.7096 2.40579 16.5055 1.5 15.0898 1.5H4.75L4.58301 1.50391Z" fill="white" />
</svg>
