<svg width="24" height="24" viewBox="0 0 24 24" fill="none" xmlns="http://www.w3.org/2000/svg">
<path d="M20.25 6.74936H16.9613C16.9978 6.71842 17.0353 6.68842 17.0709 6.65561C17.3557 6.40265 17.5851 6.09366 17.745 5.74797C17.9049 5.40228 17.9917 5.02732 18 4.64654C18.0123 4.22999 17.9394 3.81531 17.7856 3.42797C17.6319 3.04063 17.4006 2.6888 17.106 2.39407C16.8113 2.09935 16.4596 1.86796 16.0723 1.7141C15.685 1.56024 15.2703 1.48716 14.8538 1.49936C14.4728 1.50756 14.0977 1.59431 13.7518 1.75417C13.406 1.91404 13.0968 2.14358 12.8438 2.42842C12.4936 2.83426 12.2089 3.29227 12 3.78592C11.7911 3.29227 11.5064 2.83426 11.1562 2.42842C10.9032 2.14358 10.594 1.91404 10.2482 1.75417C9.90232 1.59431 9.52718 1.50756 9.14625 1.49936C8.72969 1.48716 8.31503 1.56024 7.92774 1.7141C7.54044 1.86796 7.18868 2.09935 6.89405 2.39407C6.59941 2.6888 6.36812 3.04063 6.21438 3.42797C6.06064 3.81531 5.98768 4.22999 6 4.64654C6.00833 5.02732 6.09514 5.40228 6.255 5.74797C6.41486 6.09366 6.64434 6.40265 6.92906 6.65561C6.96469 6.68654 7.00219 6.71654 7.03875 6.74936H3.75C3.35218 6.74936 2.97064 6.90739 2.68934 7.1887C2.40804 7.47 2.25 7.85153 2.25 8.24936V11.2494C2.25 11.6472 2.40804 12.0287 2.68934 12.31C2.97064 12.5913 3.35218 12.7494 3.75 12.7494V18.7494C3.75 19.1472 3.90804 19.5287 4.18934 19.81C4.47064 20.0913 4.85218 20.2494 5.25 20.2494H10.875C10.9745 20.2494 11.0698 20.2098 11.1402 20.1395C11.2105 20.0692 11.25 19.9738 11.25 19.8744V11.2494H3.75V8.24936H11.25V11.2494H12.75V8.24936H20.25V11.2494H12.75V19.8744C12.75 19.9738 12.7895 20.0692 12.8598 20.1395C12.9302 20.2098 13.0255 20.2494 13.125 20.2494H18.75C19.1478 20.2494 19.5294 20.0913 19.8107 19.81C20.092 19.5287 20.25 19.1472 20.25 18.7494V12.7494C20.6478 12.7494 21.0294 12.5913 21.3107 12.31C21.592 12.0287 21.75 11.6472 21.75 11.2494V8.24936C21.75 7.85153 21.592 7.47 21.3107 7.1887C21.0294 6.90739 20.6478 6.74936 20.25 6.74936ZM7.92281 5.53061C7.79168 5.41185 7.68651 5.26727 7.61391 5.10594C7.54131 4.94461 7.50285 4.77001 7.50094 4.59311C7.4962 4.38583 7.53287 4.17969 7.60881 3.98676C7.68476 3.79384 7.79844 3.61801 7.9432 3.46958C8.08796 3.32115 8.26089 3.20311 8.45186 3.12236C8.64282 3.04162 8.84798 2.9998 9.05531 2.99936H9.10125C9.27815 3.00126 9.45275 3.03972 9.61409 3.11232C9.77542 3.18492 9.92 3.29009 10.0388 3.42123C10.8253 4.30998 11.1028 5.78373 11.2003 6.69498C10.2853 6.59842 8.8125 6.32092 7.92281 5.53061ZM16.0791 5.53061C15.1894 6.31811 13.7128 6.59561 12.7978 6.69311C12.9094 5.70779 13.2188 4.26498 13.9688 3.42217C14.0875 3.29103 14.2321 3.18586 14.3934 3.11326C14.5547 3.04066 14.7293 3.0022 14.9062 3.00029H14.9522C15.1595 3.00159 15.3645 3.04426 15.5552 3.1258C15.7458 3.20734 15.9183 3.32611 16.0624 3.47515C16.2066 3.62419 16.3195 3.80051 16.3947 3.99377C16.4698 4.18702 16.5056 4.39333 16.5 4.60061C16.4969 4.77631 16.4578 4.94951 16.3851 5.10949C16.3124 5.26946 16.2076 5.41279 16.0772 5.53061H16.0791Z" fill="white"/>
</svg>
