<svg width="24" height="24" viewBox="0 0 24 24" fill="none" xmlns="http://www.w3.org/2000/svg">
<path d="M12 3.04688C13.461 3.04783 14.8998 3.40607 16.1904 4.09082C17.481 4.77561 18.5844 5.76634 19.4043 6.97559C20.2242 8.18495 20.7361 9.57679 20.8945 11.0293C21.0529 12.4818 20.8534 13.9509 20.3135 15.3086C19.7735 16.6662 18.9096 17.8714 17.7969 18.8184C16.6841 19.7653 15.3563 20.4253 13.9297 20.7412C12.5031 21.0571 11.0208 21.0195 9.6123 20.6309C8.20394 20.2422 6.91222 19.5144 5.84961 18.5117C5.78253 18.4483 5.72819 18.3723 5.69043 18.2881C5.65266 18.2037 5.63152 18.1119 5.62891 18.0195C5.62635 17.9273 5.64191 17.8353 5.6748 17.749C5.70775 17.6627 5.7578 17.5838 5.82129 17.5166C5.88473 17.4495 5.96063 17.3952 6.04492 17.3574C6.12915 17.3197 6.22026 17.2995 6.3125 17.2969C6.40489 17.2943 6.49763 17.3098 6.58398 17.3428C6.67019 17.3757 6.74933 17.4249 6.81641 17.4883C7.89518 18.5064 9.25022 19.1841 10.7119 19.4365C12.1735 19.6889 13.6775 19.5054 15.0352 18.9082C16.3928 18.3109 17.5441 17.3261 18.3457 16.0781C19.1473 14.8301 19.5634 13.3737 19.542 11.8906C19.5205 10.4076 19.0629 8.96353 18.2256 7.73926C17.3882 6.51501 16.2084 5.56457 14.834 5.00684C13.4595 4.44912 11.9508 4.30888 10.4971 4.60352C9.04329 4.89816 7.70806 5.61421 6.65918 6.66309V6.66406C5.89706 7.43558 5.2284 8.1798 4.55762 8.96973L4.49219 9.04688H6.75C6.93647 9.04688 7.11521 9.12108 7.24707 9.25293C7.37893 9.38478 7.45312 9.56353 7.45312 9.75C7.45312 9.93647 7.37892 10.1152 7.24707 10.2471C7.11521 10.3789 6.93648 10.4531 6.75 10.4531H3C2.81352 10.4531 2.63479 10.3789 2.50293 10.2471C2.37108 10.1152 2.29688 9.93647 2.29688 9.75V6C2.29688 5.81353 2.37107 5.63478 2.50293 5.50293C2.63479 5.37108 2.81353 5.29688 3 5.29688C3.18647 5.29688 3.36521 5.37108 3.49707 5.50293C3.62893 5.63478 3.70312 5.81353 3.70312 6V7.81445L3.78516 7.71777C4.37981 7.02385 4.9853 6.36102 5.66602 5.67188C6.49575 4.83737 7.48318 4.17616 8.57031 3.72559C9.65751 3.27502 10.8231 3.04394 12 3.04688ZM12 6.79688C12.1865 6.79688 12.3652 6.87108 12.4971 7.00293C12.6289 7.13478 12.7031 7.31353 12.7031 7.5V11.6016L12.7256 11.6152L16.1123 13.6475C16.2721 13.7435 16.3875 13.8992 16.4326 14.0801C16.4777 14.261 16.4485 14.4525 16.3525 14.6123C16.2565 14.7721 16.1008 14.8875 15.9199 14.9326C15.7391 14.9776 15.5475 14.9485 15.3877 14.8525L11.6377 12.6025C11.5338 12.5401 11.4474 12.4522 11.3877 12.3467C11.3279 12.241 11.2968 12.1214 11.2969 12V7.5C11.2969 7.31353 11.3711 7.13478 11.5029 7.00293C11.6348 6.87108 11.8135 6.79688 12 6.79688Z" fill="#C9CCD8" stroke="white" stroke-width="0.09375"/>
</svg>
