<svg width="83" height="58" viewBox="0 0 83 58" fill="none" xmlns="http://www.w3.org/2000/svg">
<rect y="0.34375" width="82.1786" height="57.0794" rx="3.71384" fill="white"/>
<path d="M39.3867 20.6988V26.6187H43.1155C43.5248 26.6297 43.932 26.5575 44.3113 26.4066C44.6906 26.2557 45.0337 26.0295 45.3189 25.7423C45.602 25.473 45.827 25.151 45.9807 24.7953C46.1344 24.4395 46.2135 24.0573 46.2135 23.6712C46.2135 23.285 46.1344 22.9028 45.9807 22.5471C45.827 22.1914 45.602 21.8694 45.3189 21.6001C45.0374 21.3066 44.6955 21.0747 44.3158 20.9196C43.936 20.7646 43.5269 20.6899 43.1155 20.7004H39.3867V20.6988ZM39.3867 28.7031V35.5691H37.1562V18.6145H43.0731C43.7792 18.5998 44.4811 18.722 45.1386 18.9739C45.796 19.2259 46.3959 19.6026 46.9036 20.0824C47.4166 20.5318 47.825 21.0835 48.1013 21.7003C48.3776 22.3171 48.5154 22.9847 48.5053 23.6579C48.5201 24.3353 48.3846 25.0077 48.1081 25.629C47.8316 26.2502 47.4207 26.8055 46.9036 27.2566C45.8697 28.2209 44.5929 28.7025 43.0731 28.7014H39.3867V28.7031Z" fill="#5F6368"/>
<path d="M50.7605 32.018C50.7586 32.2956 50.8248 32.5696 50.9537 32.8169C51.0826 33.0643 51.2704 33.2778 51.5012 33.4396C51.9945 33.8182 52.6063 34.0189 53.2333 34.0079C54.175 34.0062 55.0776 33.6398 55.7435 32.9889C56.0903 32.69 56.3681 32.3224 56.5583 31.9104C56.7486 31.4985 56.8469 31.0517 56.8469 30.5997C56.152 30.0618 55.1819 29.7934 53.9367 29.7945C53.0328 29.7945 52.2774 30.0077 51.6706 30.434C51.0639 30.8604 50.7605 31.3884 50.7605 32.018ZM53.6418 23.5879C55.2915 23.5879 56.5909 24.0181 57.5401 24.8786C58.4892 25.739 58.9655 26.9193 58.9689 28.4193V35.5703H56.8486V33.9615H56.7469C55.8271 35.2869 54.5989 35.9497 53.0622 35.9497C51.7537 35.9497 50.6554 35.5703 49.7757 34.8131C49.3528 34.4652 49.0147 34.0295 48.786 33.5376C48.5573 33.0457 48.4438 32.5101 48.4537 31.9699C48.4537 30.7704 48.9181 29.816 49.8469 29.1069C50.7757 28.3977 52.0187 28.0421 53.5757 28.0399C54.9011 28.0399 55.9926 28.2768 56.8503 28.7507V28.2536C56.8531 27.8853 56.7718 27.521 56.6123 27.1874C56.4528 26.8537 56.2191 26.5591 55.9282 26.325C55.3372 25.8038 54.5665 25.5203 53.7706 25.5314C52.5277 25.5314 51.5418 26.045 50.813 27.0723L48.8469 25.8628C49.9328 24.3473 51.5328 23.589 53.6469 23.5879" fill="#5F6368"/>
<path d="M71.2306 23.9707L63.7849 40.6884H61.4815L64.2459 34.8397L59.3477 23.9707H61.7731L65.3137 32.3063H65.3612L68.8052 23.9707H71.2306Z" fill="#5F6368"/>
<path d="M30.3703 27.2246C30.3721 26.5583 30.3154 25.8931 30.2008 25.2363H20.7891V28.9957H26.1788C26.0686 29.5953 25.8351 30.1668 25.4925 30.6757C25.1499 31.1846 24.7053 31.6203 24.1856 31.9565V34.3921H27.406C29.2873 32.6971 30.3703 30.1837 30.3703 27.2246Z" fill="#4285F4"/>
<path d="M20.7885 36.7433C23.4817 36.7433 25.7478 35.8801 27.3986 34.3889L24.1783 31.9533C23.2834 32.5415 22.1308 32.8861 20.7885 32.8861C18.1868 32.8861 15.9784 31.1729 15.1953 28.8633H11.875V31.3734C12.7061 32.9877 13.9796 34.3446 15.5535 35.2928C17.1274 36.241 18.9397 36.7431 20.7885 36.7433Z" fill="#34A853"/>
<path d="M15.1888 28.8631C14.7707 27.6535 14.7707 26.3431 15.1888 25.1335V22.625H11.8753C11.1765 23.9819 10.8125 25.4799 10.8125 26.9991C10.8125 28.5183 11.1765 30.0163 11.8753 31.3732L15.1888 28.8631Z" fill="#FABB05"/>
<path d="M20.7885 21.114C22.2114 21.0912 23.5866 21.616 24.6173 22.5753L27.4647 19.7951C25.6576 18.1389 23.2654 17.23 20.7885 17.2585C18.9399 17.2584 17.1277 17.7604 15.5538 18.7082C13.98 19.6561 12.7064 21.0127 11.875 22.6267L15.1885 25.1351C15.9784 22.8272 18.1868 21.114 20.7817 21.114" fill="#E94235"/>
</svg>
